# xmcd
#
# Track frame offsets:
#	150
#	10827
#	25639
#	44348
#	59482
#	73495
#	84779
#	96019
#	108921
#	124195
#	131014
#	136095
#	144745
#	162451
#	175308
#	183322
#	191251
#	204062
#	220580
#	235681
#	243695
#	254372
#	262319
#	267554
#
# Disc length: 3870 seconds
# Revision: 0
# Processed by: cddbd v1.5.2PL0 Copyright (c) Steve Scherf et al.
# Submitted via: dBpowerAMP V12.0
#
DISCID=5c0f1c18
DTITLE=Norman Blake • Tut Taylor - Flat Pickin' in the Kitchen
DYEAR=1997
DGENRE=Country
TTITLE0=Running Wild
TTITLE1=Goodlettsville Express
TTITLE2=Midnite At Beanblossom
TTITLE3=Train Wreck
TTITLE4=Little Bessie
TTITLE5=Lost Indians
TTITLE6=Arkansas Traveler
TTITLE7=Steel Guitar Rag
TTITLE8=Banks of the Ohio
TTITLE9=Liberty
TTITLE10=Westgate
TTITLE11=Fire in the Resonator
TTITLE12=Rosinea
TTITLE13=Weave and Way
TTITLE14=Break-Out
TTITLE15=In the Old City
TTITLE16=The Electric Telephone
TTITLE17=Bad Blake's Blues
TTITLE18=Cakewalk
TTITLE19=Ode to Lloyd
TTITLE20=Picking Flat 2
TTITLE21=Ragweed
TTITLE22=Fire on the Mountain
TTITLE23=Memories
EXTD=
EXTT0=
EXTT1=
EXTT2=
EXTT3=
EXTT4=
EXTT5=
EXTT6=
EXTT7=
EXTT8=
EXTT9=
EXTT10=
EXTT11=
EXTT12=
EXTT13=
EXTT14=
EXTT15=
EXTT16=
EXTT17=
EXTT18=
EXTT19=
EXTT20=
EXTT21=
EXTT22=
EXTT23=
PLAYORDER=
